<svg xmlns="http://www.w3.org/2000/svg" xmlns:xlink="http://www.w3.org/1999/xlink" id="Artwork" viewBox="0 0 266.79 243.84"><defs><style>.cls-1{fill:#fff}.cls-2{clip-path:url(#clip-path)}.cls-3{clip-path:url(#clip-path-2)}</style><clipPath id="clip-path"><polygon points="200.76 83.27 136.29 46.43 136.29 197.41 162.05 182.45 162.05 139.98 181.5 151.23 181.39 122.18 162.05 111.13 162.05 94.26 200.85 116.68 200.76 83.27" class="cls-1"/></clipPath><clipPath id="clip-path-2"><polygon points="66.03 83.27 130.5 46.43 130.5 197.41 104.74 182.45 104.74 94.26 65.94 116.68 66.03 83.27" class="cls-1"/></clipPath></defs><title>WhiteWhite Icon</title><polygon points="200.76 83.27 136.29 46.43 136.29 197.41 162.05 182.45 162.05 139.98 181.5 151.23 181.39 122.18 162.05 111.13 162.05 94.26 200.85 116.68 200.76 83.27" class="cls-1"/><g class="cls-2"><rect width="158.31" height="151.72" x="60.08" y="45.88" class="cls-1"/></g><polygon points="66.03 83.27 130.5 46.43 130.5 197.41 104.74 182.45 104.74 94.26 65.94 116.68 66.03 83.27" class="cls-1"/><g class="cls-3"><rect width="158.31" height="151.72" x="59" y="45.88" class="cls-1"/></g></svg>